<svg id="Layer_1" data-name="Layer 1" xmlns="http://www.w3.org/2000/svg" viewBox="0 0 320 320"><defs><style>.cls-1{fill:#8cccf0;}.cls-2{font-size:170.2px;fill:#fff;font-family:MyriadPro-Regular, Myriad Pro;}</style></defs><title>icon16</title><path class="cls-1" d="M115.37,197c-3.6-17.59-8.15-33.55-9.95-49.81-5-45.1,8.12-85.15,37.07-119.9,6-7.24,13.18-13.6,20.22-19.91,1.9-1.7,5.3-1.73,8-2.52,0,2.67.63,5.46.05,8-9.08,39.68-5.08,77.81,13.15,114.32,4.1,8.21,5.37,8.6,14,5.46,9.55-3.47,15.88-10.65,19.78-19.41,3.64-8.16,6-17,8.15-25.69,2.1-8.55,4.63-10.11,11.59-4.9,30.08,22.54,48.47,52.28,52.93,89.74,5.16,43.31-8.66,80.38-39.94,110.53-23.18,22.34-51.32,34.39-83.56,36.05-65.07,3.36-121.16-37.29-135.58-100.2C19.27,166.11,35.63,122,76.42,86.78c1-.84,2-2.06,3.1-2.23,2.17-.32,4.76-.64,6.52.28.88.46,1,3.9.34,5.59-5.45,14.43-8.91,29.15-8.52,44.73.49,19.47,5.47,37.17,20.25,50.66C103,190.31,109.42,193.2,115.37,197Z"/><text class="cls-2" transform="translate(137.63 273.09)">f</text></svg>